<svg width="164" height="50" viewBox="0 0 164 50" fill="none" xmlns="http://www.w3.org/2000/svg">
<path d="M34.8439 12.5015V28.281C34.8439 28.5367 34.7423 28.782 34.5614 28.9629C34.3805 29.1438 34.1352 29.2454 33.8794 29.2454H28.8983C28.6425 29.2453 28.3973 29.1436 28.2165 28.9628C28.0356 28.7819 27.934 28.5367 27.9339 28.281V2.61488C27.9339 2.3591 28.0355 2.1138 28.2163 1.93293C28.3972 1.75207 28.6425 1.65046 28.8983 1.65046H33.5078C33.7636 1.65046 34.0089 1.75207 34.1897 1.93293C34.3706 2.1138 34.4722 2.3591 34.4722 2.61488V6.22934C34.4722 6.22934 36.12 1.07342 41.0101 1.07342C41.0101 1.07342 45.8471 0.488728 47.8138 5.85727C47.8138 5.85727 49.4616 1.07342 54.4581 1.07342C54.4581 1.07342 61.8885 0.631605 61.8885 8.3202L61.9451 12.5547V28.3341C61.9451 28.5899 61.8435 28.8352 61.6626 29.0161C61.4818 29.1969 61.2365 29.2985 60.9807 29.2985H55.9991C55.7434 29.2984 55.4981 29.1968 55.3173 29.0159C55.1364 28.8351 55.0348 28.5899 55.0347 28.3341L54.9892 11.1195C55.1308 7.22141 51.9773 7.50504 51.9773 7.50504C48.0086 7.57605 48.3904 12.5547 48.3904 12.5547V28.3341C48.3904 28.5899 48.2888 28.8352 48.108 29.0161C47.9271 29.1969 47.6818 29.2985 47.426 29.2985H42.4449C42.1891 29.2984 41.9439 29.1968 41.763 29.0159C41.5822 28.8351 41.4806 28.5899 41.4804 28.3341V11.509C41.4804 11.509 41.7717 7.46932 38.2279 7.46932C38.2283 7.46932 34.7201 7.00879 34.8439 12.5015ZM163.244 12.4543V28.2333C163.244 28.4891 163.143 28.7343 162.962 28.9152C162.781 29.096 162.536 29.1976 162.28 29.1978L157.099 29.2981C156.844 29.298 156.598 29.1964 156.418 29.0155C156.237 28.8347 156.135 28.5894 156.135 28.3337V11.509C156.135 11.509 156.426 7.46932 152.883 7.46932C152.883 7.46932 149.498 7.30263 149.498 13.6364V28.2805C149.498 28.5363 149.397 28.7815 149.216 28.9624C149.035 29.1432 148.79 29.2448 148.534 29.245H143.552C143.297 29.2448 143.051 29.1432 142.871 28.9624C142.69 28.7815 142.588 28.5363 142.588 28.2805V2.61488C142.588 2.35914 142.69 2.1139 142.871 1.93306C143.051 1.75222 143.297 1.65057 143.552 1.65046H148.162C148.418 1.65046 148.663 1.75207 148.844 1.93293C149.025 2.1138 149.126 2.3591 149.126 2.61488V6.22934C149.126 6.22934 150.774 1.07342 155.664 1.07342C155.664 1.07342 160.903 0.278664 162.667 5.75734C162.667 5.75691 163.244 6.88717 163.244 12.4543ZM127.278 0.967112C120.908 0.967112 115.744 6.33565 115.744 15.3718C115.744 23.3274 119.731 29.7765 127.278 29.7765C134.401 29.7765 138.813 23.3274 138.813 15.3718C138.813 6.49511 133.649 0.967112 127.278 0.967112ZM131.299 15.6907C131.299 19.0926 130.874 20.8998 130.874 20.8998C130.269 24.496 127.658 24.5011 127.273 24.4819C126.858 24.4985 124.225 24.4611 123.681 20.8998C123.681 20.8998 123.255 19.0926 123.255 15.6907V15.1239C123.255 11.722 123.681 9.91482 123.681 9.91482C124.225 6.35351 126.858 6.31609 127.273 6.33225C127.658 6.31311 130.269 6.31779 130.874 9.91482C130.874 9.91482 131.299 11.722 131.299 15.1239V15.6907ZM112.853 6.19362V2.51113C112.853 2.25538 112.751 2.01014 112.57 1.8293C112.389 1.64846 112.144 1.54681 111.888 1.5467H95.4235C95.1677 1.5467 94.9224 1.64831 94.7416 1.82917C94.5607 2.01004 94.4591 2.25534 94.4591 2.51113V6.16513C94.4592 6.42088 94.5609 6.66612 94.7417 6.84696C94.9225 7.0278 95.1678 7.12944 95.4235 7.12956H104.012L93.8463 21.8766C93.8463 21.8766 93.4458 22.4744 93.459 23.1348V27.6206C93.459 27.6206 93.3926 29.1586 95.1369 28.2661C95.1369 28.2661 98.2352 26.3942 103.43 26.3942C103.43 26.3942 108.561 26.3304 111.981 28.4272C111.981 28.4272 113.401 29.0727 113.401 27.6533V23.7489C113.401 23.7489 113.53 22.7155 112.175 22.0705C112.175 22.0705 108.238 19.9086 103.075 20.2632L112.853 6.19362ZM24.0894 24.6554L22.53 22.2818C22.0338 21.3956 22.0695 20.4031 22.0695 20.4031V9.45387C22.2821 -0.0075168 11.793 0.807651 11.793 0.807651C2.46849 0.807651 1.09117 8.06421 1.09117 8.06421C0.702507 9.52318 1.83277 9.55847 1.83277 9.55847L6.38912 10.0207C6.38912 10.0207 7.16602 10.1984 7.44879 9.27357C7.44879 9.27357 8.04879 6.10773 11.4043 6.10773C15.0553 6.10773 15.0175 9.24125 15.0175 9.24125V11.8645C7.72902 12.1082 4.35141 14.1314 4.35141 14.1314C-0.148805 16.6828 0.134399 21.7503 0.134399 21.7503C0.134399 30.0065 8.00117 29.6519 8.00117 29.6519C13.0329 29.6519 16.0095 25.9669 16.0095 25.9669C16.8953 27.5266 18.5256 29.0141 18.5256 29.0141C19.3412 29.8985 20.1913 29.1561 20.1913 29.1561L23.8767 26.0026C24.6915 25.3996 24.0894 24.6554 24.0894 24.6554ZM10.4569 24.5534C8.09004 24.5534 7.21024 22.2014 7.60315 19.8899C7.99649 17.5783 10.0393 15.7617 15.0179 15.8149V17.2203C15.1944 23.3598 12.427 24.5534 10.4569 24.5534ZM90.2833 24.6554L88.7244 22.2818C88.2282 21.3956 88.2635 20.4031 88.2635 20.4031V9.45387C88.4761 -0.0075168 77.9869 0.807651 77.9869 0.807651C68.6625 0.807651 67.2851 8.06421 67.2851 8.06421C66.8965 9.52318 68.0267 9.55847 68.0267 9.55847L72.5831 10.0207C72.5831 10.0207 73.36 10.1984 73.6428 9.27357C73.6428 9.27357 74.2428 6.10773 77.5983 6.10773C81.2493 6.10773 81.2115 9.24125 81.2115 9.24125V11.8645C73.9234 12.1082 70.5454 14.1314 70.5454 14.1314C66.0452 16.6828 66.3284 21.7503 66.3284 21.7503C66.3284 30.0065 74.1952 29.6519 74.1952 29.6519C79.2269 29.6519 82.2035 25.9669 82.2035 25.9669C83.0897 27.5266 84.7192 29.0141 84.7192 29.0141C85.5348 29.8985 86.3852 29.1561 86.3852 29.1561L90.0703 26.0026C90.8855 25.3996 90.2833 24.6554 90.2833 24.6554ZM76.6509 24.5534C74.284 24.5534 73.4042 22.2014 73.7971 19.8899C74.1905 17.5783 76.2333 15.7617 81.2115 15.8149V17.2203C81.3884 23.3598 78.6214 24.5534 76.6509 24.5534Z" fill="white"/>
<path d="M102.827 45.3805C102.827 45.3805 102.41 46.1055 102.922 46.2675C102.922 46.2675 103.5 46.4933 104.221 45.824C104.221 45.824 109.481 41.2294 109.608 32.8642C109.608 32.8642 109.647 31.8195 109.227 31.5337C109.227 31.5337 107.58 30.076 101.654 30.5195C101.654 30.5195 96.4895 30.8682 93.6698 33.3715C93.6698 33.3715 93.4163 33.5931 93.4163 33.878C93.4163 33.878 93.3555 34.4933 94.9055 34.2267C94.9055 34.2267 100.07 33.4974 103.143 33.878C103.143 33.878 104.728 34.0681 105.172 34.6073C105.172 34.6073 105.901 35.2094 105.52 37.205C105.52 37.2059 104.474 42.2755 102.827 45.3805Z" fill="white"/>
<path d="M101.783 37.3553C101.783 37.3553 102.555 38.3546 101.31 39.2166C101.31 39.2166 88.0142 49.8516 65.6896 49.8516C65.6896 49.8516 42.7092 50.9853 23.5207 33.5508C23.5207 33.5508 22.848 32.9602 23.2656 32.4112C23.2656 32.4112 23.6389 31.906 24.6055 32.4554C24.6055 32.4554 42.6561 43.7032 66.3627 43.7032C66.3627 43.7032 82.8404 44.341 99.7433 37.1121C99.7433 37.1121 101.09 36.4143 101.783 37.3553Z" fill="white"/>
</svg>
