<svg width="46" height="45" viewBox="0 0 46 45" fill="none" xmlns="http://www.w3.org/2000/svg">
<path d="M7.45028 6.68058C16.1806 -2.04957 30.3355 -2.04966 39.0657 6.68058C47.7958 15.4108 47.7958 29.5657 39.0657 38.296C30.3355 47.0262 16.1806 47.0261 7.45028 38.296C-1.28 29.5657 -1.28 15.4109 7.45028 6.68058ZM15.5592 14.8019C15.2098 15.1514 15.0137 15.6254 15.0137 16.1195C15.0137 16.6136 15.2099 17.0876 15.5592 17.437L20.6105 22.4883L15.5592 27.5395C15.2099 27.889 15.0137 28.363 15.0137 28.8571C15.0137 29.3512 15.2098 29.8252 15.5592 30.1746C15.9086 30.524 16.3827 30.7201 16.8768 30.7201C17.3709 30.7201 17.8449 30.524 18.1943 30.1746L23.2456 25.1234L28.2968 30.1746C28.6462 30.524 29.1202 30.7201 29.6143 30.7201C30.1085 30.7201 30.5824 30.524 30.9319 30.1746C31.2813 29.8252 31.4774 29.3513 31.4774 28.8571C31.4774 28.3629 31.2814 27.889 30.9319 27.5395L25.8806 22.4883L30.9319 17.437C31.2814 17.0876 31.4774 16.6137 31.4774 16.1195C31.4774 15.6253 31.2813 15.1514 30.9319 14.8019C30.5824 14.4526 30.1085 14.2564 29.6143 14.2564C29.1202 14.2565 28.6462 14.4525 28.2968 14.8019L28.3058 14.8109L23.2545 19.8622L18.1943 14.8019C17.8449 14.4526 17.3709 14.2564 16.8768 14.2564C16.3827 14.2565 15.9086 14.4526 15.5592 14.8019Z" fill="#D7D7D7" fill-opacity="0.5"/>
</svg>
