<svg width="139" height="74" viewBox="0 0 139 74" fill="none" xmlns="http://www.w3.org/2000/svg">
<path d="M117.421 22.4082H133.58C135.102 22.4082 136.335 21.175 136.335 19.6537C136.335 19.1638 136.207 18.7038 135.983 18.3052L127.903 3.61433C127.431 2.77516 126.532 2.20827 125.501 2.20827C124.469 2.20827 123.57 2.77516 123.098 3.61433L115.018 18.3052C114.794 18.7038 114.666 19.1638 114.666 19.6537C114.666 21.175 115.899 22.4082 117.421 22.4082Z" stroke="#AD2239" stroke-width="3.5" stroke-miterlimit="10" stroke-linecap="round" stroke-linejoin="round"/>
<path d="M125.5 8.63546V14.1445" stroke="#AD2239" stroke-width="3.5" stroke-miterlimit="10" stroke-linecap="round" stroke-linejoin="round"/>
<path d="M127.019 17.8164C127.019 18.6551 126.34 19.335 125.501 19.335C124.662 19.335 123.982 18.6551 123.982 17.8164C123.982 16.9778 124.662 16.2979 125.501 16.2979C126.34 16.2979 127.019 16.9778 127.019 17.8164Z" fill="#AD2239"/>
<path d="M7.19678 64.6356C0.827634 58.2665 0.827634 47.9398 7.19678 41.5703" stroke="#AD2239" stroke-width="4" stroke-miterlimit="10" stroke-linecap="round" stroke-linejoin="round"/>
<path d="M15.4352 56.3986C13.6154 54.5788 13.6154 51.6284 15.4352 49.8086" stroke="#AD2239" stroke-width="4" stroke-miterlimit="10" stroke-linecap="round" stroke-linejoin="round"/>
<path d="M104.937 71.7433C110.084 71.7433 114.257 67.5706 114.257 62.4234C114.257 57.2762 110.084 53.1035 104.937 53.1035C99.7898 53.1035 95.6172 57.2762 95.6172 62.4234C95.6172 67.5706 99.7898 71.7433 104.937 71.7433Z" stroke="#AD2239" stroke-width="4" stroke-miterlimit="10" stroke-linecap="round" stroke-linejoin="round"/>
<path d="M36.286 57.7633C35.4931 59.1341 35.0391 60.7257 35.0391 62.4234C35.0391 67.5706 39.2117 71.7433 44.359 71.7433C49.5062 71.7433 53.6789 67.5706 53.6789 62.4234C53.6789 57.2762 49.5062 53.1035 44.359 53.1035" stroke="#AD2239" stroke-width="4" stroke-miterlimit="10" stroke-linecap="round" stroke-linejoin="round"/>
<path d="M114.258 62.4231L118.284 61.4169C121.395 60.6391 123.578 57.8432 123.578 54.6359V46.1138C123.578 43.5403 121.492 41.454 118.918 41.454H113.762C111.17 41.454 108.709 40.367 106.934 38.478C103.079 34.373 95.8694 27.4746 90.9591 27.4746C88.6292 27.4746 69.9897 27.4746 69.9897 27.4746C63.2232 27.4746 56.4564 34.8439 53.2569 38.8817C51.9829 40.4893 50.06 41.4409 48.01 41.5049C37.9849 41.8182 32.42 43.5316 29.3577 45.1773C27.0993 46.3911 25.7207 48.757 25.7207 51.3212V57.7639C25.7207 60.3374 27.807 62.4237 30.3805 62.4237H35.0403" stroke="#AD2239" stroke-width="4" stroke-miterlimit="10" stroke-linecap="round" stroke-linejoin="round"/>
<path d="M95.6185 62.4229H53.6797" stroke="#AD2239" stroke-width="4" stroke-miterlimit="10" stroke-linecap="round" stroke-linejoin="round"/>
<path d="M60.6699 43.7838H90.9592C93.5327 43.7838 95.619 41.6975 95.619 39.124" stroke="#AD2239" stroke-width="4" stroke-miterlimit="10" stroke-linecap="round" stroke-linejoin="round"/>
</svg>
