<svg width="203" height="202" viewBox="0 0 203 202" fill="none" xmlns="http://www.w3.org/2000/svg">
<path opacity="0.6" d="M77.0586 43.1201C87.8666 24.4001 114.886 24.4001 125.694 43.1201L163.464 108.539C174.272 127.259 160.762 150.659 139.146 150.659H63.6064C41.9905 150.659 28.4801 127.259 39.2881 108.539L77.0586 43.1201Z" fill="#AD2239" stroke="#AD2239"/>
<path d="M52.9797 145.32H149.775C158.887 145.32 166.274 137.933 166.274 128.821C166.274 125.887 165.508 123.131 164.165 120.744L115.768 32.7481C112.94 27.7216 107.556 24.3261 101.377 24.3261C95.1995 24.3261 89.8145 27.7216 86.987 32.7481L38.5893 120.744C37.2466 123.131 36.4805 125.887 36.4805 128.821C36.4805 137.933 43.8674 145.32 52.9797 145.32Z" stroke="#AD2239" stroke-width="6.33" stroke-miterlimit="10" stroke-linecap="round" stroke-linejoin="round"/>
<path d="M101.377 62.8248V95.8232" stroke="#AD2239" stroke-width="6.33" stroke-miterlimit="10" stroke-linecap="round" stroke-linejoin="round"/>
<path d="M106.878 117.823C106.878 120.86 104.416 123.322 101.379 123.322C98.3411 123.322 95.8789 120.86 95.8789 117.823C95.8789 114.785 98.3411 112.323 101.379 112.323C104.416 112.323 106.878 114.785 106.878 117.823Z" fill="#AD2239"/>
<g style="mix-blend-mode:plus-lighter">
<path d="M52.9797 145.32H149.775C158.887 145.32 166.274 137.933 166.274 128.821C166.274 125.887 165.508 123.131 164.165 120.744L115.768 32.7481C112.94 27.7216 107.556 24.3261 101.377 24.3261C95.1995 24.3261 89.8145 27.7216 86.987 32.7481L38.5893 120.744C37.2466 123.131 36.4805 125.887 36.4805 128.821C36.4805 137.933 43.8674 145.32 52.9797 145.32Z" stroke="#AD2239" stroke-width="6.33" stroke-miterlimit="10" stroke-linecap="round" stroke-linejoin="round"/>
</g>
<g style="mix-blend-mode:plus-lighter">
<path d="M101.377 62.8248V95.8232" stroke="#AD2239" stroke-width="6.33" stroke-miterlimit="10" stroke-linecap="round" stroke-linejoin="round"/>
</g>
<g style="mix-blend-mode:plus-lighter">
<path d="M106.878 117.823C106.878 120.86 104.416 123.322 101.379 123.322C98.3411 123.322 95.8789 120.86 95.8789 117.823C95.8789 114.785 98.3411 112.323 101.379 112.323C104.416 112.323 106.878 114.785 106.878 117.823Z" fill="#AD2239"/>
</g>
</svg>
