<svg width="31" height="32" viewBox="0 0 31 32" fill="none" xmlns="http://www.w3.org/2000/svg">
<g opacity="0.9">
<path d="M18.2232 16.0276C18.2232 17.6329 16.922 18.9342 15.3167 18.9342C13.7114 18.9342 12.4102 17.6329 12.4102 16.0276C12.4102 14.4224 13.7114 13.1211 15.3167 13.1211C16.922 13.1211 18.2232 14.4224 18.2232 16.0276Z" fill="white"/>
<path d="M22.114 10.8848C21.9742 10.5062 21.7513 10.1635 21.4617 9.8822C21.1804 9.59256 20.838 9.36966 20.4591 9.22994C20.1519 9.11061 19.6903 8.96858 18.8402 8.92988C17.9205 8.88794 17.6448 8.87891 15.3166 8.87891C12.9882 8.87891 12.7124 8.88771 11.793 8.92965C10.9429 8.96858 10.4811 9.11061 10.1741 9.22994C9.79525 9.36966 9.45255 9.59256 9.17149 9.8822C8.88186 10.1635 8.65896 10.506 8.51901 10.8848C8.39968 11.192 8.25764 11.6538 8.21894 12.504C8.17701 13.4234 8.16797 13.6991 8.16797 16.0275C8.16797 18.3557 8.17701 18.6315 8.21894 19.5511C8.25764 20.4012 8.39968 20.8628 8.51901 21.1701C8.65896 21.5489 8.88163 21.8914 9.17126 22.1726C9.45255 22.4623 9.79502 22.6852 10.1739 22.8249C10.4811 22.9445 10.9429 23.0865 11.793 23.1252C12.7124 23.1671 12.9879 23.1759 15.3164 23.1759C17.645 23.1759 17.9208 23.1671 18.8399 23.1252C19.6901 23.0865 20.1519 22.9445 20.4591 22.8249C21.2196 22.5316 21.8206 21.9305 22.114 21.1701C22.2333 20.8628 22.3753 20.4012 22.4143 19.5511C22.4562 18.6315 22.465 18.3557 22.465 16.0275C22.465 13.6991 22.4562 13.4234 22.4143 12.504C22.3756 11.6538 22.2335 11.192 22.114 10.8848ZM15.3166 20.5048C12.8436 20.5048 10.8389 18.5003 10.8389 16.0273C10.8389 13.5543 12.8436 11.5498 15.3166 11.5498C17.7894 11.5498 19.7941 13.5543 19.7941 16.0273C19.7941 18.5003 17.7894 20.5048 15.3166 20.5048ZM19.9711 12.4192C19.3933 12.4192 18.9247 11.9506 18.9247 11.3728C18.9247 10.7949 19.3933 10.3264 19.9711 10.3264C20.549 10.3264 21.0175 10.7949 21.0175 11.3728C21.0173 11.9506 20.549 12.4192 19.9711 12.4192Z" fill="white"/>
<path d="M15.316 0.842773C6.93077 0.842773 0.130859 7.64269 0.130859 16.0279C0.130859 24.4132 6.93077 31.2131 15.316 31.2131C23.7013 31.2131 30.5012 24.4132 30.5012 16.0279C30.5012 7.64269 23.7013 0.842773 15.316 0.842773ZM23.983 19.6229C23.9409 20.5511 23.7933 21.1848 23.5778 21.7395C23.1248 22.9108 22.1989 23.8367 21.0276 24.2897C20.4731 24.5052 19.8392 24.6525 18.9112 24.6949C17.9814 24.7374 17.6843 24.7475 15.3163 24.7475C12.948 24.7475 12.6512 24.7374 11.7211 24.6949C10.7931 24.6525 10.1591 24.5052 9.60467 24.2897C9.02262 24.0707 8.49572 23.7276 8.06011 23.2839C7.61662 22.8485 7.27347 22.3213 7.0545 21.7395C6.83902 21.185 6.69142 20.5511 6.64925 19.6231C6.60638 18.693 6.59642 18.396 6.59642 16.0279C6.59642 13.6599 6.60638 13.3628 6.64902 12.433C6.69119 11.5048 6.83855 10.8711 7.05404 10.3164C7.273 9.73454 7.61639 9.20741 8.06011 8.77203C8.49549 8.32831 9.02262 7.98515 9.60444 7.76619C10.1591 7.5507 10.7929 7.40333 11.7211 7.36093C12.6509 7.31853 12.948 7.30833 15.316 7.30833C17.6841 7.30833 17.9811 7.31853 18.911 7.36116C19.8392 7.40333 20.4729 7.5507 21.0276 7.76595C21.6094 7.98492 22.1366 8.32831 22.5722 8.77203C23.0157 9.20764 23.359 9.73454 23.5778 10.3164C23.7935 10.8711 23.9409 11.5048 23.9833 12.433C24.0257 13.3628 24.0356 13.6599 24.0356 16.0279C24.0356 18.396 24.0257 18.693 23.983 19.6229Z" fill="white"/>
</g>
</svg>
