<svg width="111" height="82" viewBox="0 0 111 82" fill="none" xmlns="http://www.w3.org/2000/svg">
<path d="M79.7702 22.4082H95.9301C97.4514 22.4082 98.6846 21.175 98.6846 19.6537C98.6846 19.1638 98.5568 18.7038 98.3326 18.3052L90.2526 3.61433C89.7806 2.77516 88.8816 2.20827 87.8501 2.20827C86.8187 2.20827 85.9197 2.77516 85.4477 3.61433L77.3677 18.3052C77.1435 18.7038 77.0156 19.1638 77.0156 19.6537C77.0156 21.175 78.2489 22.4082 79.7702 22.4082Z" stroke="#AD2239" stroke-width="3.5" stroke-miterlimit="10" stroke-linecap="round" stroke-linejoin="round"/>
<path d="M87.8496 8.63546V14.1445" stroke="#AD2239" stroke-width="3.5" stroke-miterlimit="10" stroke-linecap="round" stroke-linejoin="round"/>
<path d="M89.3691 17.8164C89.3691 18.6551 88.6892 19.335 87.8506 19.335C87.0119 19.335 86.332 18.6551 86.332 17.8164C86.332 16.9778 87.0119 16.2979 87.8506 16.2979C88.6892 16.2979 89.3691 16.9778 89.3691 17.8164Z" fill="#AD2239"/>
<path d="M45.5721 36.4512H34.4842L27.6988 43.2348C26.648 44.2874 26.0566 45.7125 26.0566 47.2008V59.0175C26.0566 60.5168 27.2719 61.7303 28.7694 61.7303H56.8066" stroke="#AD2239" stroke-width="3.5" stroke-miterlimit="10" stroke-linecap="round" stroke-linejoin="round"/>
<path d="M51.4824 36.4512H85.0428L91.8264 43.2348C92.8771 44.2874 93.4685 45.7125 93.4685 47.2008V59.0175C93.4685 60.5168 92.2532 61.7303 90.7558 61.7303H62.7186" stroke="#AD2239" stroke-width="3.5" stroke-miterlimit="10" stroke-linecap="round" stroke-linejoin="round"/>
<path d="M42.1647 50.4958L31.6738 47.687V39.2607L37.9685 44.2014L46.3611 46.2996L42.1647 50.4958Z" stroke="#AD2239" stroke-width="3.5" stroke-miterlimit="10" stroke-linecap="round" stroke-linejoin="round"/>
<path d="M77.3603 50.4958L87.8512 47.687V39.2607L81.5567 44.2014L73.1641 46.2996L77.3603 50.4958Z" stroke="#AD2239" stroke-width="3.5" stroke-miterlimit="10" stroke-linecap="round" stroke-linejoin="round"/>
<path d="M29.5078 61.7305H42.9085V64.6353C42.9085 66.1334 41.694 67.348 40.1958 67.348H32.2205C30.7224 67.348 29.5078 66.1334 29.5078 64.6353V61.7305Z" stroke="#AD2239" stroke-width="3.5" stroke-miterlimit="10" stroke-linecap="round" stroke-linejoin="round"/>
<path d="M76.6152 61.7305H90.016V64.6353C90.016 66.1334 88.8014 67.348 87.3032 67.348H79.328C77.8298 67.348 76.6152 66.1334 76.6152 64.6353V61.7305Z" stroke="#AD2239" stroke-width="3.5" stroke-miterlimit="10" stroke-linecap="round" stroke-linejoin="round"/>
<path d="M45.5722 36.4511H34.4844L39.3836 25.6906C40.2951 23.6904 42.2898 22.4082 44.4871 22.4082H62.4237" stroke="#AD2239" stroke-width="3.5" stroke-miterlimit="10" stroke-linecap="round" stroke-linejoin="round"/>
<path d="M68.3357 22.4082H75.0398C77.2353 22.4082 79.2301 23.6904 80.1416 25.6906L85.0426 36.4511H51.4824" stroke="#AD2239" stroke-width="3.5" stroke-miterlimit="10" stroke-linecap="round" stroke-linejoin="round"/>
<path d="M85.0407 36.4515H90.6582C92.2096 36.4515 93.467 35.1939 93.467 33.6428C93.467 32.0914 92.2094 30.834 90.6582 30.834H82.4824L85.0407 36.4515Z" stroke="#AD2239" stroke-width="3.5" stroke-miterlimit="10" stroke-linecap="round" stroke-linejoin="round"/>
<path d="M34.4831 36.4515H28.8654C27.3141 36.4515 26.0566 35.1939 26.0566 33.6428C26.0566 32.0914 27.3143 30.834 28.8654 30.834H37.0412L34.4831 36.4515Z" stroke="#AD2239" stroke-width="3.5" stroke-miterlimit="10" stroke-linecap="round" stroke-linejoin="round"/>
<path d="M46.3613 46.3027H73.163" stroke="#AD2239" stroke-width="3.5" stroke-miterlimit="10" stroke-linecap="round" stroke-linejoin="round"/>
<path d="M62.7186 61.7304H70.9978V58.911C70.9978 55.8149 68.4877 53.3047 65.3915 53.3047H54.1337C51.0375 53.3047 48.5273 55.8149 48.5273 58.911V61.7304H56.8066" stroke="#AD2239" stroke-width="3.5" stroke-miterlimit="10" stroke-linecap="round" stroke-linejoin="round"/>
<path d="M31.6738 56.1133H37.2915" stroke="#AD2239" stroke-width="3.5" stroke-miterlimit="10" stroke-linecap="round" stroke-linejoin="round"/>
<path d="M82.2324 56.1133H87.85" stroke="#AD2239" stroke-width="3.5" stroke-miterlimit="10" stroke-linecap="round" stroke-linejoin="round"/>
<line x1="91.5743" y1="62.0507" x2="109.165" y2="79.641" stroke="#AD2239" stroke-width="3" stroke-dasharray="6 6"/>
<line y1="-1.5" x2="24.8765" y2="-1.5" transform="matrix(-0.707107 0.707107 0.707107 0.707107 29.5098 63.1113)" stroke="#AD2239" stroke-width="3" stroke-dasharray="6 6"/>
<line x1="30.1011" y1="64.4899" x2="0.747222" y2="77.0808" stroke="#AD2239" stroke-width="3"/>
<line x1="91.8543" y1="62.3184" x2="81.0693" y2="81.2582" stroke="#AD2239" stroke-width="3"/>
</svg>
