<svg width="32" height="32" viewBox="0 0 32 32" fill="none" xmlns="http://www.w3.org/2000/svg">
<g opacity="0.9">
<path d="M11.3758 11.251C9.3106 11.251 7.57812 14.804 7.57812 18.2787C7.57812 19.903 8.19478 20.8138 9.2323 20.8138C10.2405 20.8138 10.8669 20.1776 12.6777 17.3391C12.6777 17.3391 13.5011 16.0314 14.8605 13.9463C13.4289 11.8969 12.4942 11.251 11.3758 11.251Z" fill="white"/>
<path d="M20.4499 10.7617C19.3427 10.7617 18.4118 11.6297 17.2832 13.3716C17.5966 13.8359 17.9213 14.3423 18.2602 14.8935L19.5124 16.9819C21.4707 20.1328 21.9634 20.8139 22.9948 20.8139C24.0709 20.8139 24.5902 19.8939 24.5902 18.3082C24.5902 14.1484 22.75 10.7617 20.4499 10.7617Z" fill="white"/>
<path d="M15.9469 0.842773C7.56034 0.842773 0.761719 7.6414 0.761719 16.0279C0.761719 24.4145 7.56034 31.2131 15.9469 31.2131C24.3334 31.2131 31.1321 24.4145 31.1321 16.0279C31.1321 7.6414 24.3334 0.842773 15.9469 0.842773ZM22.9453 23.1242C20.8856 23.1242 19.7489 21.9672 17.7087 18.5532L16.6614 16.7914C16.4126 16.3723 16.1767 15.9824 15.9523 15.62C15.3118 16.7526 14.3808 18.3967 14.3808 18.3967C12.1474 22.3007 10.8911 23.1242 9.14423 23.1242C6.71721 23.1242 5.26821 21.2351 5.26821 18.2401C5.26821 13.4538 7.93054 8.93172 11.4053 8.93172C13.1096 8.93172 14.5338 9.75795 16.2367 11.9262C17.476 10.2507 18.8449 8.93172 20.5962 8.93172C23.9032 8.93172 26.6256 13.1406 26.6256 18.152C26.6255 21.2093 25.3097 23.1242 22.9453 23.1242Z" fill="white"/>
</g>
</svg>
