<svg width="166" height="49" viewBox="0 0 166 49" fill="none" xmlns="http://www.w3.org/2000/svg">
<path d="M31.8308 1.32141C29.8044 0.512172 27.6161 0.106445 25.4279 0.106445C24.1309 0.106445 22.8339 0.268293 21.5369 0.512173L16.309 9.50468C18.4574 8.32962 20.8474 7.76205 23.3194 7.80417C24.8182 7.80417 26.277 8.00593 27.696 8.41165L31.8308 1.32141ZM0.425781 25.5032C0.425781 38.4643 11.4469 48.5498 24.2927 48.5498C37.746 48.5498 48.6075 37.6949 48.6075 24.49C48.6075 16.7546 44.8784 9.9481 39.3268 5.41194L35.274 12.4201C38.839 15.4576 40.9076 19.9139 40.9076 24.6119C40.9076 33.6044 33.4515 40.9762 24.2927 40.9762C15.1339 40.9762 7.71778 33.5645 7.71778 24.4102V24.3703C7.71778 23.2772 7.7976 22.182 8.00157 21.1289L0.425781 25.5032ZM75.4343 14.8501C73.4478 14.8102 71.5433 15.4975 70.0445 16.7546L69.6388 15.2957H65.9917V33.8062H70.652V23.7606C70.652 21.6144 72.071 19.4661 74.8268 19.4661C76.9752 19.4661 78.23 20.9648 78.23 23.5167V33.8461H82.8903V23.1132C82.8903 18.0915 79.9727 14.8501 75.4343 14.8501ZM129.533 14.8501C124.306 14.8501 120.213 19.1024 120.213 24.5321C120.213 29.9595 124.306 34.2119 129.533 34.2119C134.761 34.2119 138.854 29.9595 138.854 24.5321C138.854 19.1024 134.761 14.8501 129.533 14.8501ZM134.152 24.5321C134.152 27.4897 132.207 29.6358 129.573 29.6358C126.939 29.6358 124.953 27.4897 124.953 24.5321C124.953 21.5745 126.897 19.4284 129.531 19.4284C132.167 19.4284 134.152 21.5745 134.152 24.5321ZM101.977 14.8501C96.7494 14.8501 92.6566 19.1024 92.6566 24.5321C92.6566 29.9595 96.7494 34.2119 101.977 34.2119C107.205 34.2119 111.298 29.9595 111.298 24.5321C111.298 19.1024 107.205 14.8501 101.977 14.8501ZM106.556 24.5321C106.556 27.4897 104.611 29.6358 101.977 29.6358C99.3433 29.6358 97.399 27.4897 97.399 24.5321C97.399 21.5745 99.3433 19.4284 101.977 19.4284C104.611 19.4284 106.556 21.5745 106.556 24.5321ZM158.143 14.8501C156.156 14.8102 154.252 15.4975 152.753 16.7546L152.347 15.2957H148.7V33.8062H153.321V23.7606C153.321 21.6144 154.739 19.4661 157.495 19.4661C159.644 19.4661 160.941 20.9648 160.941 23.5167V33.8461H165.599V23.1132C165.559 18.0915 162.641 14.8501 158.143 14.8501Z" fill="white"/>
</svg>
