<svg width="224" height="34" viewBox="0 0 224 34" fill="none" xmlns="http://www.w3.org/2000/svg">
<path d="M37.4189 12.619C36.5983 14.9374 31.4077 17.3583 18.6877 14.486L20.3392 22.0052C33.0695 24.3235 40.6092 22.4155 44.9176 17.8917C48.1078 14.5373 48.7336 10.1981 46.1177 6.88478C43.3481 3.37652 37.2035 0.822266 29.4381 0.822266C18.3389 0.822266 10.43 4.0433 6.0395 16.1068L0.130859 32.335H10.4607L16.3283 15.9221C18.7492 9.17233 23.8065 8.0542 29.4279 8.0542C35.0493 8.0542 38.1677 10.4854 37.4087 12.619" fill="white"/>
<path d="M139.702 19.7484L139.302 19.574C141.61 18.6508 144.123 18.1482 146.616 18.1482C148.134 18.1482 151.499 18.4046 152.914 19.215C153.263 19.4099 153.571 19.7177 153.407 20.0972C152.781 21.5026 143.569 21.4307 139.702 19.7484ZM158.577 15.9427C156.135 14.6399 152.104 13.5936 148.165 13.4397C139.999 13.1012 130.695 15.8914 128.839 22.4668C127.772 26.252 131.444 31.3708 140.994 32.8275C145.775 33.5558 153.376 33.3711 158.844 31.5657L160.885 25.9443C149.796 29.75 135.301 28.6524 135.783 22.9387C141.148 26.3751 148.975 26.0571 154.771 25.1031C164.814 23.4618 164.67 19.1945 158.567 15.9324" fill="white"/>
<path d="M175.503 19.7484L175.103 19.574C177.411 18.6508 179.924 18.1482 182.417 18.1482C183.935 18.1482 187.3 18.4046 188.715 19.215C189.064 19.4099 189.382 19.7177 189.208 20.0972C188.582 21.5026 179.37 21.4307 175.503 19.7484ZM194.378 15.9427C191.936 14.6399 187.915 13.5936 183.966 13.4397C175.8 13.1012 166.496 15.8914 164.639 22.4668C163.573 26.252 167.245 31.3708 176.795 32.8275C181.576 33.5558 189.177 33.3711 194.644 31.5657L196.686 25.9443C185.597 29.75 171.102 28.6524 171.584 22.9387C176.949 26.3751 184.776 26.0571 190.572 25.1031C200.614 23.4618 200.471 19.1945 194.367 15.9324" fill="white"/>
<path d="M201.918 20.7834L197.814 32.334H207.272L210.422 23.4505C211.201 21.1938 211.858 19.5114 214.617 19.5114H221.264L223.131 14.1875H210.883C206.79 14.1875 203.487 16.2186 201.918 20.7937" fill="white"/>
<path d="M43.4922 32.3345H53.2784L59.8948 14.1777H50.1086L43.4922 32.3345Z" fill="white"/>
<path d="M107.019 22.5701C107.932 20.0672 110.681 18.9183 113.092 18.9183C115.502 18.9183 117.769 20.3236 116.887 22.7548L113.389 32.3358H122.847L126.396 22.6009C128.243 17.5437 124.252 13.3584 115.318 13.3584C105.378 13.3584 99.746 16.6102 97.5713 22.5599L94.0117 32.3358H103.47L107.029 22.5701H107.019Z" fill="white"/>
<path d="M77.846 19.0906C81.6723 19.2547 84.7497 21.1832 84.1958 23.6759C83.6726 26.0763 79.9489 27.7176 76.0816 27.5535C72.2554 27.3893 69.178 25.4608 69.7319 22.9681C70.2551 20.5677 73.9787 18.9264 77.846 19.0906ZM79.1796 13.4486C69.3318 13.028 60.5509 17.2441 59.3713 22.6296C58.2121 27.9227 64.8593 32.7851 74.7481 33.2056C84.5958 33.616 93.3767 29.4102 94.5564 24.0247C95.7156 18.7315 89.0683 13.8692 79.1796 13.4486Z" fill="white"/>
</svg>
