<svg width="77" height="53" viewBox="0 0 77 53" fill="none" xmlns="http://www.w3.org/2000/svg">
<path d="M43.2956 42.2936C42.8381 47.1797 38.5064 50.7698 33.6203 50.3123C28.7342 49.8546 25.1443 45.5228 25.6018 40.6368C26.0593 35.7509 30.3911 32.1608 35.277 32.6184C40.1632 33.0759 43.7532 37.4077 43.2956 42.2936Z" stroke="#AD2239" stroke-width="3.5" stroke-miterlimit="10" stroke-linecap="round" stroke-linejoin="round"/>
<path d="M74.862 30.46V23.2992H66.5621C64.1982 23.2992 62.1265 24.8814 61.5045 27.1622L55.1602 50.4248H74.862V43.4609" stroke="#AD2239" stroke-width="3.5" stroke-miterlimit="10" stroke-linecap="round" stroke-linejoin="round"/>
<path d="M17.75 24.961L21.9642 25.3555" stroke="#AD2239" stroke-width="3.5" stroke-miterlimit="10" stroke-linecap="round" stroke-linejoin="round"/>
<path d="M14.2734 50.4248H55.1598" stroke="#AD2239" stroke-width="3.5" stroke-miterlimit="10" stroke-linecap="round" stroke-linejoin="round"/>
<path d="M37.6041 41.7607C37.4409 43.5029 35.8964 44.7828 34.1544 44.6198C32.4122 44.4566 31.1321 42.9122 31.2953 41.17C31.4585 39.4278 33.0029 38.1477 34.745 38.3109C36.4872 38.474 37.7672 40.0185 37.6041 41.7607Z" stroke="#AD2239" stroke-width="3.5" stroke-miterlimit="10" stroke-linecap="round" stroke-linejoin="round"/>
<path d="M58.8582 36.8624L56.7044 36.5853C54.2191 36.2656 51.9497 38.0332 51.6515 40.5213L51.526 41.5687C51.3214 43.2751 52.5637 44.8148 54.2751 44.9754L56.5865 45.1924L58.8582 36.8624Z" stroke="#AD2239" stroke-width="3.5" stroke-miterlimit="10" stroke-linecap="round" stroke-linejoin="round"/>
<path d="M58.8582 36.8624L56.7044 36.5853C54.2191 36.2656 51.9497 38.0332 51.6515 40.5213L51.526 41.5687C51.3214 43.2751 52.5637 44.8148 54.2751 44.9754L56.5865 45.1924L58.8582 36.8624Z" stroke="#AD2239" stroke-width="3.5" stroke-miterlimit="10" stroke-linecap="round" stroke-linejoin="round"/>
<path d="M57.6942 21.9082L46.8555 11.3299L55.8715 13.7909L57.867 5.35049L62.1772 13.2183L68.533 10.1464L65.6838 17.2327" stroke="#AD2239" stroke-width="3.5" stroke-miterlimit="10" stroke-linecap="round" stroke-linejoin="round"/>
<path d="M60.126 32.217L56.5862 45.1914L43.0004 43.8863C43.1455 43.3746 43.2452 42.8423 43.2966 42.2939C43.7542 37.4065 40.1644 33.0749 35.2787 32.6174C30.3913 32.1599 26.0595 35.751 25.6021 40.6369C25.5523 41.1721 25.5507 41.7 25.5932 42.2176L8.06445 40.4882L11.5584 19.516L11.5586 2.59962C11.5586 2.59962 14.4107 2.78878 17.3068 3.22561C21.2632 3.82389 25.259 5.9941 28.6507 8.93855C32.0422 11.8815 34.8298 15.6002 36.3636 19.294C37.1892 21.2795 38.8931 22.7663 40.9724 23.3133L48.3409 25.2518C48.5945 25.4382 48.7852 25.6976 48.8849 25.9953L50.0726 29.5116C50.3806 30.4251 51.4437 30.8299 52.281 30.3518L55.7122 28.3957C56.3957 28.0071 57.2623 28.1977 57.7182 28.8371L60.126 32.217Z" stroke="#AD2239" stroke-width="3.5" stroke-miterlimit="10" stroke-linecap="round" stroke-linejoin="round"/>
<path d="M30.9701 21.7012L30.0173 19.671C27.6519 14.6323 21.7219 9.36203 15.7217 8.71903C13.3263 8.46242 11.5586 8.30449 11.5586 8.30449V19.516L30.9701 21.7012Z" stroke="#AD2239" stroke-width="3.5" stroke-miterlimit="10" stroke-linecap="round" stroke-linejoin="round"/>
<path d="M2.7168 2.1787L11.5587 2.59969V19.5098L2.7168 18.5261" stroke="#AD2239" stroke-width="3.5" stroke-miterlimit="10" stroke-linecap="round" stroke-linejoin="round"/>
<path d="M2.7168 18.5264L11.5587 19.5101L8.06447 40.4883L2.7168 39.9525" stroke="#AD2239" stroke-width="3.5" stroke-miterlimit="10" stroke-linecap="round" stroke-linejoin="round"/>
<path d="M2.7168 18.5261L11.5587 19.5098V8.30471L2.7168 7.81993" stroke="#AD2239" stroke-width="3.5" stroke-miterlimit="10" stroke-linecap="round" stroke-linejoin="round"/>
</svg>
